:SAMPLES-PER-SECOND 30
:FULLY-SPECIFIED
:DEGREES
54
root  -25.1298 37.8429 -18.9877 171.398 -62.2016 -176.109
RightUpLeg  20.1179 -15.3414 -6.21733
RightLeg  23.2183 1.7022 0.496441
RightFoot  -24.0593 0.780959 8.53504
RightToes  0.00048216 0.542163 -0.142577
Spine  10.3095 1.8719 7.08426
Spine1  14.8381 4.10573 -3.95433
HEad  13.3202 9.05996 -5.765
LeftShoulder1  7.88314 -11.987 -44.3127
LeftArm  -8.4607 23.6116 -26.091
LeftForeArm  25.7025 -14.2403 -4.71713
LeftHand  -0.25398 0.0180481 5.50724
RightShoulder  4.96891 9.21194 33.1332
RightArm  -7.58203 6.22564 36.5802
RightForeArm  5.09265 31.4891 6.63487
RightHand  -0.823256 0.833088 -15.4308
LeftUpLeg  -23.6026 11.38 0.975103
LeftLeg  5.73116 33.0951 -3.77256
LeftFoot  4.1459 -1.02251 7.25345
LeftToes  1.06248e-005 4.65855e-005 -8.185e-006
55
root  -26.4935 37.7072 -19.6684 175.592 -63.1344 179.427
RightUpLeg  18.271 -13.3926 -8.17212
RightLeg  30.3642 0.312416 -0.0705465
RightFoot  -19.8925 0.907133 14.2457
RightToes  0.00048216 0.542163 -0.142577
Spine  12.053 2.26643 3.30188
Spine1  13.8388 4.07749 -3.73761
HEad  12.9454 8.57706 -4.71572
LeftShoulder1  7.91177 -11.9659 -44.5443
LeftArm  -9.62787 22.3813 -25.1637
LeftForeArm  24.9404 -14.2354 -4.50698
LeftHand  -0.25398 0.0180481 5.50724
RightShoulder  5.22763 9.50655 34.2318
RightArm  -9.97694 2.35353 37.7094
RightForeArm  6.23139 31.8229 6.65609
RightHand  -0.930347 1.17546 -16.5167
LeftUpLeg  -26.5411 20.3492 -5.82861
LeftLeg  11.8263 21.8116 0.312407
LeftFoot  9.20116 -2.14286 11.5542
LeftToes  1.06248e-005 4.65855e-005 -8.185e-006
56
root  -27.7194 37.677 -20.2037 178.896 -65.4541 175.886
RightUpLeg  13.3582 -13.7716 -10.0262
RightLeg  41.9211 -1.17293 -1.46204
RightFoot  -9.41253 -0.27382 15.6841
RightToes  0.00048216 0.542163 -0.142577
Spine  15.0681 1.67274 0.87227
Spine1  12.3259 3.15248 -3.83878
HEad  11.9692 8.08004 -4.40148
LeftShoulder1  8.00334 -12.2554 -44.2206
LeftArm  -11.0821 20.6621 -25.0605
LeftForeArm  23.4513 -14.7633 -4.21861
LeftHand  -0.25398 0.0180481 5.50724
RightShoulder  5.35704 9.70336 34.6071
RightArm  -11.1626 -0.263094 39.386
RightForeArm  6.77223 29.8522 6.13279
RightHand  -1.04146 1.69054 -17.1994
LeftUpLeg  -29.0632 26.5173 -12.3344
LeftLeg  16.0439 11.4403 3.15431
LeftFoot  9.84138 -2.58258 13.4473
LeftToes  1.06248e-005 4.65855e-005 -8.185e-006
57
root  -28.6766 37.6719 -20.5725 -177.868 -67.514 172.397
RightUpLeg  5.59172 -13.9908 -11.1468
RightLeg  54.8216 -2.03721 -3.50735
RightFoot  3.13431 -1.43172 11.5175
RightToes  0.00048216 0.542163 -0.142577
Spine  19.1894 0.927358 -0.547122
Spine1  11.2599 2.26563 -4.47884
HEad  10.23 7.45767 -5.0243
LeftShoulder1  8.23931 -12.9033 -43.701
LeftArm  -12.0593 18.2201 -25.5202
LeftForeArm  22.5968 -16.2965 -3.92464
LeftHand  -0.25398 0.0180481 5.50724
RightShoulder  5.41412 9.93292 34.3421
RightArm  -10.2795 -0.969083 40.6866
RightForeArm  6.8507 26.0134 5.2085
RightHand  -0.898951 1.1581 -15.9647
LeftUpLeg  -29.0734 26.0761 -14.2969
LeftLeg  19.2858 9.94617 4.29382
LeftFoot  7.1507 -2.30441 13.8031
LeftToes  1.06248e-005 4.65855e-005 -8.185e-006
58
root  -29.3832 37.7199 -20.8744 -174.445 -68.25 168.84
RightUpLeg  -3.29015 -12.8536 -11.4024
RightLeg  65.0798 -1.84984 -4.94723
RightFoot  9.72442 -1.19363 6.6349
RightToes  0.00048216 0.542163 -0.142577
Spine  23.5856 0.755419 -1.99922
Spine1  11.2003 1.88537 -4.97047
HEad  7.66192 6.82705 -6.23343
LeftShoulder1  8.56196 -13.6737 -43.3581
LeftArm  -11.9884 14.7833 -26.0074
LeftForeArm  22.7253 -18.9796 -3.70462
LeftHand  -0.25398 0.0180481 5.50724
RightShoulder  5.50873 10.3534 33.8069
RightArm  -8.16479 0.332659 41.0373
RightForeArm  7.30828 21.2031 4.56166
RightHand  -0.57463 -0.370202 -13.2098
LeftUpLeg  -28.4925 26.2724 -15.3079
LeftLeg  21.0005 9.50578 4.33281
LeftFoot  4.71074 -1.9139 13.3029
LeftToes  1.06248e-005 4.65855e-005 -8.185e-006
59
root  -30.0493 37.9331 -21.2024 -172.801 -68.7157 167.573
RightUpLeg  -11.7269 -11.8128 -10.5775
RightLeg  70.7463 -1.41273 -5.36321
RightFoot  9.49585 -0.689265 4.08755
RightToes  0.00048216 0.542163 -0.142577
Spine  27.3749 0.65679 -2.48029
Spine1  11.6381 1.60195 -4.89114
HEad  4.60811 6.19559 -7.3756
LeftShoulder1  8.76982 -14.3879 -42.5953
LeftArm  -11.3496 10.404 -26.7246
LeftForeArm  23.2703 -21.9919 -3.66884
LeftHand  -0.25398 0.0180481 5.50724
RightShoulder  5.63483 10.8733 33.2473
RightArm  -8.72512 3.03139 40.638
RightForeArm  10.6094 15.8492 5.17289
RightHand  -0.359555 -1.65181 -10.977
LeftUpLeg  -27.9103 27.6619 -15.6805
LeftLeg  21.1849 7.55624 3.55788
LeftFoot  3.72501 -1.6827 12.5033
LeftToes  1.06248e-005 4.65855e-005 -8.185e-006
60
root  -30.6911 38.2433 -21.5381 -172.43 -70.1023 168.273
RightUpLeg  -19.2276 -11.9525 -9.13129
RightLeg  71.5063 -1.20811 -4.9897
RightFoot  6.76962 -0.677386 4.56321
RightToes  0.00048216 0.542163 -0.142577
Spine  30.4957 0.0338851 -1.67503
Spine1  12.1354 1.05292 -4.67378
HEad  1.77801 5.37263 -8.05281
LeftShoulder1  8.72915 -15.0344 -40.7902
LeftArm  -11.1075 5.35647 -28.1439
LeftForeArm  23.4887 -23.9644 -3.87492
LeftHand  -0.25398 0.0180481 5.50724
RightShoulder  5.73052 11.3061 32.7472
RightArm  -11.3461 6.20756 39.9978
RightForeArm  14.1345 10.5672 5.71552
RightHand  -0.328106 -1.9561 -10.7347
LeftUpLeg  -27.3998 28.0192 -15.3302
LeftLeg  20.6127 5.70089 2.70278
LeftFoot  3.37739 -1.56207 11.8886
LeftToes  1.06248e-005 4.65855e-005 -8.185e-006
